<?xml version="1.0" standalone="no"?>
<!DOCTYPE svg PUBLIC "-//W3C//DTD SVG 20010904//EN"
 "http://www.w3.org/TR/2001/REC-SVG-20010904/DTD/svg10.dtd">
<svg version="1.0" xmlns="http://www.w3.org/2000/svg"
 width="286.000000pt" height="286.000000pt" viewBox="0 0 286.000000 286.000000"
 preserveAspectRatio="xMidYMid meet">
<metadata>
Created by potrace 1.11, written by Peter Selinger 2001-2013
</metadata>
<g transform="translate(0.000000,286.000000) scale(0.100000,-0.100000)"
fill="#000000" stroke="none">
<path d="M2398 2632 c-143 -2 -159 -4 -168 -21 -5 -11 -16 -25 -23 -33 -7 -7
-43 -58 -80 -113 -38 -55 -90 -131 -118 -170 -27 -38 -71 -101 -97 -140 -84
-125 -143 -205 -152 -205 -5 0 -36 39 -69 88 -34 48 -67 95 -74 105 -13 16
-31 17 -181 15 l-167 -3 66 -95 c171 -245 245 -356 245 -368 0 -13 -96 -157
-252 -377 -42 -60 -97 -138 -120 -173 -24 -34 -50 -71 -59 -81 -8 -11 -24 -36
-34 -55 l-20 -36 -353 0 -354 0 6 23 c3 12 25 100 48 194 l43 173 204 2 205 3
83 115 83 115 -260 3 c-143 1 -260 4 -260 5 0 2 16 74 35 160 19 86 35 159 35
162 0 3 108 5 239 5 l239 0 33 53 c19 28 53 79 77 112 l44 60 -428 3 c-235 1
-431 -1 -435 -5 -4 -5 -17 -53 -29 -108 -12 -55 -25 -116 -29 -135 -5 -19 -23
-100 -40 -180 -18 -80 -36 -161 -41 -180 -5 -19 -16 -69 -25 -110 -9 -41 -25
-113 -36 -160 -10 -47 -23 -105 -29 -130 -5 -25 -28 -125 -50 -224 -23 -98
-39 -180 -37 -182 2 -3 194 -5 425 -4 232 0 423 -4 426 -8 5 -8 -30 -62 -161
-249 l-64 -93 76 0 c54 0 75 -4 75 -13 0 -13 -24 -52 -47 -75 -7 -7 -13 -18
-13 -23 0 -5 87 -9 209 -9 l210 0 18 24 c10 14 79 113 153 221 183 266 334
484 360 520 12 17 49 70 83 119 34 49 67 91 74 93 6 2 42 -40 79 -94 38 -54
74 -104 81 -111 7 -7 13 -18 13 -23 0 -5 74 -9 176 -9 l176 0 -52 63 c-28 34
-65 78 -81 97 -16 20 -40 58 -53 85 -13 28 -51 88 -85 135 -34 47 -64 95 -67
108 -5 17 6 40 39 90 113 165 129 188 141 202 7 9 51 72 97 140 94 137 227
331 333 483 l68 97 -76 0 c-49 0 -76 4 -76 11 0 6 14 31 30 56 17 25 29 48 26
50 -7 7 -73 8 -258 5z m142 -69 c-1 -5 -38 -62 -84 -128 -46 -66 -107 -154
-136 -195 -28 -41 -99 -142 -157 -225 -57 -82 -133 -193 -169 -245 -35 -52
-99 -145 -141 -206 -43 -60 -143 -204 -222 -320 -80 -115 -147 -211 -150 -214
-3 -3 -24 -32 -46 -65 -22 -33 -46 -67 -52 -75 -7 -8 -41 -57 -75 -107 -35
-51 -98 -145 -141 -208 l-79 -115 -134 0 c-74 0 -134 2 -134 4 0 3 35 56 78
118 43 62 109 158 147 213 38 55 73 105 77 110 13 15 287 410 448 646 80 116
152 219 160 229 14 17 59 83 265 383 141 205 209 303 247 355 l39 52 129 0
c72 0 130 -3 130 -7z m80 -127 c0 -8 -11 -27 -23 -43 -13 -15 -53 -71 -88
-122 -35 -52 -75 -111 -89 -131 -88 -125 -151 -216 -260 -375 -68 -99 -127
-184 -130 -188 -4 -5 -17 5 -29 22 l-22 31 78 112 c98 143 285 413 301 436 7
9 48 69 92 132 43 63 84 121 90 128 15 17 80 16 80 -2z m-798 -1083 c10 -9 18
-24 18 -33 0 -9 -55 -95 -121 -191 -67 -96 -147 -210 -177 -254 -79 -114 -132
-191 -183 -265 -25 -36 -69 -99 -97 -140 -29 -42 -64 -89 -79 -106 l-28 -30
-128 6 -129 5 19 22 c17 19 31 23 113 25 l94 3 26 37 c57 84 190 276 260 377
41 60 99 144 129 187 30 44 78 113 107 154 29 41 75 107 101 147 26 40 50 72
52 73 3 0 13 -7 23 -17z"/>
</g>
</svg>
